<svg width="30" height="30" viewBox="0 0 30 30" fill="none" xmlns="http://www.w3.org/2000/svg">
<path fill-rule="evenodd" clip-rule="evenodd" d="M8 0C3.58172 0 0 3.58173 0 8V22C0 26.4183 3.58172 30 8 30H22C26.4183 30 30 26.4183 30 22V8C30 3.58173 26.4183 0 22 0H8ZM22.8694 8.00616C22.946 7.99792 23.0233 7.99792 23.1 8.00616L14.9494 16.4433L6.82123 8.0528C6.91813 8.02344 7.01841 8.00775 7.11935 8.00616H22.8694ZM15.7425 17.2712L23.9325 8.81665C23.9727 8.93079 23.9955 9.05084 24 9.1723V20.8339C24 21.1431 23.8815 21.4398 23.6705 21.6584C23.4595 21.8771 23.1734 22 22.875 22H7.125C6.82663 22 6.54048 21.8771 6.3295 21.6584C6.11853 21.4398 6 21.1431 6 20.8339V9.1723C6.00119 9.07379 6.01442 8.97583 6.03937 8.88074L14.1562 17.2712C14.367 17.4885 14.6522 17.6104 14.9494 17.6104C15.2466 17.6104 15.5317 17.4885 15.7425 17.2712ZM7.11375 20.8339H7.89563L11.9963 16.6182L11.2031 15.7961L7.11375 20.0001V20.8339ZM22.0763 20.8339H22.8638L22.8581 20.0001L18.7687 15.7961L17.9756 16.6182L22.0763 20.8339Z" fill="white"/>
</svg>
