<svg width="30" height="30" viewBox="0 0 30 30" fill="none" xmlns="http://www.w3.org/2000/svg">
<path fill-rule="evenodd" clip-rule="evenodd" d="M8 0C3.58172 0 0 3.58173 0 8V22C0 26.4183 3.58172 30 8 30H22C26.4183 30 30 26.4183 30 22V8C30 3.58173 26.4183 0 22 0H8ZM17.3918 6.00525C16.7476 6.00604 16.1023 6.00684 15.4548 6.01605L15.4554 6.0166C15.4384 8.05743 15.4395 10.0988 15.4406 12.1426C15.4412 13.2849 15.4418 14.428 15.4392 15.5723C15.4364 15.956 15.4369 16.3392 15.4373 16.7223C15.4384 17.7531 15.4396 18.7824 15.3777 19.8149C15.3687 20.1014 15.212 20.3533 15.0598 20.5979L15.0236 20.6563C14.5211 21.4075 13.5972 21.9205 12.6331 21.93C11.1789 22.0482 9.81667 20.9562 9.61142 19.657C9.60987 19.5933 9.60742 19.5292 9.60495 19.4649C9.59091 19.0984 9.57659 18.7248 9.72861 18.3833C9.94493 17.8156 10.3588 17.3289 10.9063 16.998C11.6548 16.5212 12.6558 16.45 13.5124 16.7041C13.5124 16.2033 13.5217 15.7027 13.531 15.2021C13.5436 14.5306 13.5561 13.8591 13.5461 13.1871C11.671 12.8653 9.6684 13.4092 8.2388 14.551C6.97754 15.5314 6.16497 16.9725 6.00958 18.4789C5.99398 18.8715 5.99743 19.2646 6.01994 19.657C6.19864 21.5096 7.42559 23.2357 9.1692 24.1786C10.2213 24.7475 11.4548 25.0562 12.6895 24.9915C14.7024 24.9606 16.6623 23.9708 17.7915 22.4525C18.4933 21.5405 18.8915 20.439 18.9589 19.3322C18.9764 17.8117 18.9753 16.2885 18.9742 14.7633C18.9736 13.9775 18.9731 13.1912 18.975 12.4045C19.4237 12.6735 19.8821 12.9366 20.3742 13.1408C21.504 13.6324 22.7549 13.87 24 13.9074V10.7194C22.6714 10.5834 21.3059 10.1814 20.3405 9.30322C19.3732 8.44635 18.898 7.21191 18.83 6C18.351 6.00409 17.8717 6.00464 17.3918 6.00525Z" fill="black"/>
</svg>
