<svg width="113" height="14" viewBox="0 0 113 14" fill="none" xmlns="http://www.w3.org/2000/svg">
<path d="M4.32679 2.524C4.32679 1.48 4.59679 1.228 6.19879 1.228C9.00679 1.228 10.4108 2.488 10.4108 6.826C10.4108 10.192 9.76279 12.388 6.19879 12.388C4.59679 12.388 4.32679 12.136 4.32679 11.092V2.524ZM0.798789 1.228C2.18479 1.228 2.49079 1.552 2.49079 2.416V11.2C2.49079 12.064 2.18479 12.388 0.798789 12.388V13H6.77479C9.33079 13 12.4988 11.02 12.4988 6.808C12.4988 2.596 9.29479 0.616 6.63079 0.616H0.798789V1.228ZM17.731 13V12.388C16.183 12.388 15.823 12.136 15.823 11.452C15.823 10.948 16.345 9.868 16.651 8.86H20.899C21.385 9.904 21.907 11.344 21.907 11.722C21.907 12.244 21.835 12.388 20.485 12.388V13H25.489V12.388C24.445 12.388 24.031 12.064 23.491 10.678L19.549 0.543999H18.901L15.265 10.48C14.869 11.578 14.491 12.388 13.033 12.388V13H17.731ZM16.903 8.104L18.703 3.37L20.611 8.104H16.903ZM25.5969 0.616V1.228C27.0189 1.228 27.3249 1.552 27.3249 2.416V11.2C27.3249 12.064 27.0189 12.388 25.5969 12.388V13H30.8889V12.388C29.4669 12.388 29.1609 12.064 29.1609 11.2V2.416C29.1609 1.552 29.4669 1.228 30.8889 1.228V0.616H25.5969ZM41.095 8.374H40.537C39.745 11.848 37.873 12.388 36.325 12.388C35.407 12.388 35.011 12.064 35.011 11.2V2.416C35.011 1.552 35.317 1.228 36.739 1.228V0.616H31.591V1.228C32.869 1.228 33.175 1.552 33.175 2.416V11.2C33.175 12.064 32.869 12.388 31.555 12.388V13H40.987L41.095 8.374ZM41.323 1.228C42.259 1.228 42.601 1.372 43.087 2.326L45.841 7.744V11.2C45.841 12.064 45.535 12.388 43.969 12.388V13H49.621V12.388C47.983 12.388 47.677 12.064 47.677 11.2V7.744L50.215 2.938C50.881 1.678 51.115 1.228 52.411 1.228V0.616H48.289V1.228C49.423 1.228 49.819 1.444 49.819 1.822C49.819 2.74 47.677 6.088 47.335 6.844C47.029 6.034 44.923 2.452 44.923 1.84C44.923 1.408 45.355 1.228 46.435 1.228V0.616H41.323V1.228ZM58.8609 11.2C58.8609 12.064 58.5549 12.388 57.2049 12.388V13H64.0629C67.1049 13 68.1669 10.768 68.1669 9.616C68.1669 7.708 66.6909 6.52 64.0269 6.43V6.394C65.9349 6.394 67.5549 5.26 67.5549 3.676C67.5549 2.2 66.4389 0.616 63.0189 0.616H57.2049V1.228C58.5549 1.228 58.8609 1.552 58.8609 2.416V11.2ZM63.5589 6.808C65.3229 6.808 66.0789 7.924 66.0789 9.616C66.0789 11.398 65.2869 12.388 62.5509 12.388C61.0389 12.388 60.6969 12.082 60.6969 11.146V6.808H63.5589ZM60.6969 6.196V2.128C60.6969 1.624 60.8589 1.228 62.3349 1.228C64.5309 1.228 65.4669 1.948 65.4669 3.82C65.4669 5.224 64.8909 6.196 62.4789 6.196H60.6969ZM79.9567 10.408C79.9567 11.002 79.7767 11.848 79.2907 11.848C77.7607 11.848 78.8587 7.456 75.3847 6.898V6.862C77.4907 6.862 79.6867 5.98 79.6867 3.712C79.6867 2.488 78.7687 0.616 75.7987 0.616H69.3007V1.228C70.6687 1.228 70.9747 1.552 70.9747 2.416V11.2C70.9747 12.064 70.6687 12.388 69.3007 12.388V13H74.5927V12.388C73.1167 12.388 72.8107 12.064 72.8107 11.2V6.988H73.5127C75.4207 6.988 76.2847 7.384 76.2847 10.264C76.2847 11.92 76.9687 13.108 78.3187 13.108C79.9747 13.108 80.4607 11.884 80.4607 10.408H79.9567ZM72.8107 2.272C72.8107 1.534 73.2967 1.228 74.8447 1.228C76.9687 1.228 77.7427 2.326 77.7427 3.964C77.7427 5.854 76.5007 6.376 74.8807 6.376C74.0527 6.376 73.3327 6.358 72.8107 6.34V2.272ZM86.2926 0.616H81.0006V1.228C82.4226 1.228 82.7286 1.552 82.7286 2.416V9.58C82.7286 12.1 84.5106 13.216 87.2826 13.216C89.8746 13.216 91.7646 11.776 91.7646 9.184V2.956C91.7646 1.984 91.9446 1.228 93.5286 1.228V0.616H89.1906V1.228C90.9366 1.228 91.1166 1.984 91.1166 2.956V9.04C91.1166 11.056 90.1266 12.604 87.4986 12.604C85.5186 12.604 84.5646 11.56 84.5646 9.634V2.416C84.5646 1.552 84.8706 1.228 86.2926 1.228V0.616ZM94.0988 0.616V1.228C95.5208 1.228 95.8268 1.552 95.8268 2.416V11.2C95.8268 12.064 95.5208 12.388 94.0988 12.388V13H99.3908V12.388C97.9688 12.388 97.6628 12.064 97.6628 11.2V2.416C97.6628 1.552 97.9688 1.228 99.3908 1.228V0.616H94.0988ZM100.273 0.616V1.228C101.191 1.228 101.515 1.3 102.091 1.966V11.2C102.091 12.064 101.785 12.388 100.309 12.388V13H104.737V12.388C103.153 12.388 102.847 12.064 102.847 11.2V3.1H102.883L109.957 13.108H110.659V2.416C110.659 1.552 110.965 1.228 112.225 1.228V0.616H108.121V1.228C109.597 1.228 109.903 1.552 109.903 2.416V9.886H109.867L103.387 0.616H100.273Z" fill="white"/>
</svg>