<svg width="911" height="385" viewBox="0 0 911 385" fill="none" xmlns="http://www.w3.org/2000/svg">
<rect width="911" height="385" rx="64" fill="black"/>
<rect x="45" y="46" width="820" height="293" rx="32" fill="#FFFCE6"/>
<circle cx="67" cy="23" r="9" fill="#FFFCE6"/>
<circle cx="163" cy="23" r="9" fill="#FFFCE6"/>
<circle cx="115" cy="23" r="9" fill="#FFFCE6"/>
<circle cx="211" cy="23" r="9" fill="#FFFCE6"/>
<circle cx="91" cy="23" r="9" fill="#FFFCE6"/>
<circle cx="187" cy="23" r="9" fill="#FFFCE6"/>
<circle cx="139" cy="23" r="9" fill="#FFFCE6"/>
<circle cx="235" cy="23" r="9" fill="#FFFCE6"/>
<circle cx="27" cy="51" r="9" fill="#FFFCE6"/>
<circle cx="43" cy="32" r="9" fill="#FFFCE6"/>
<circle cx="23" cy="75" r="9" fill="#FFFCE6"/>
<circle cx="23" cy="99" r="9" fill="#FFFCE6"/>
<circle cx="259" cy="23" r="9" fill="#FFFCE6"/>
<circle cx="355" cy="23" r="9" fill="#FFFCE6"/>
<circle cx="307" cy="23" r="9" fill="#FFFCE6"/>
<circle cx="403" cy="23" r="9" fill="#FFFCE6"/>
<circle cx="283" cy="23" r="9" fill="#FFFCE6"/>
<circle cx="379" cy="23" r="9" fill="#FFFCE6"/>
<circle cx="331" cy="23" r="9" fill="#FFFCE6"/>
<circle cx="427" cy="23" r="9" fill="#FFFCE6"/>
<circle cx="451" cy="23" r="9" fill="#FFFCE6"/>
<circle cx="547" cy="23" r="9" fill="#FFFCE6"/>
<circle cx="499" cy="23" r="9" fill="#FFFCE6"/>
<circle cx="595" cy="23" r="9" fill="#FFFCE6"/>
<circle cx="475" cy="23" r="9" fill="#FFFCE6"/>
<circle cx="571" cy="23" r="9" fill="#FFFCE6"/>
<circle cx="523" cy="23" r="9" fill="#FFFCE6"/>
<circle cx="619" cy="23" r="9" fill="#FFFCE6"/>
<circle cx="643" cy="23" r="9" fill="#FFFCE6"/>
<circle cx="739" cy="23" r="9" fill="#FFFCE6"/>
<circle cx="691" cy="23" r="9" fill="#FFFCE6"/>
<circle cx="667" cy="23" r="9" fill="#FFFCE6"/>
<circle cx="763" cy="23" r="9" fill="#FFFCE6"/>
<circle cx="787" cy="23" r="9" fill="#FFFCE6"/>
<circle cx="715" cy="23" r="9" fill="#FFFCE6"/>
<circle cx="887" cy="67" r="9" transform="rotate(90 887 67)" fill="#FFFCE6"/>
<circle cx="887" cy="91" r="9" transform="rotate(90 887 91)" fill="#FFFCE6"/>
<circle cx="859" cy="27" r="9" transform="rotate(90 859 27)" fill="#FFFCE6"/>
<circle cx="878" cy="43" r="9" transform="rotate(90 878 43)" fill="#FFFCE6"/>
<circle cx="835" cy="23" r="9" transform="rotate(90 835 23)" fill="#FFFCE6"/>
<circle cx="811" cy="23" r="9" transform="rotate(90 811 23)" fill="#FFFCE6"/>
<circle cx="23" cy="267" r="9" transform="rotate(-90 23 267)" fill="#FFFCE6"/>
<circle cx="23" cy="219" r="9" transform="rotate(-90 23 219)" fill="#FFFCE6"/>
<circle cx="23" cy="243" r="9" transform="rotate(-90 23 243)" fill="#FFFCE6"/>
<circle cx="23" cy="195" r="9" transform="rotate(-90 23 195)" fill="#FFFCE6"/>
<circle cx="23" cy="171" r="9" transform="rotate(-90 23 171)" fill="#FFFCE6"/>
<circle cx="23" cy="123" r="9" transform="rotate(-90 23 123)" fill="#FFFCE6"/>
<circle cx="23" cy="147" r="9" transform="rotate(-90 23 147)" fill="#FFFCE6"/>
<circle cx="887" cy="260" r="9" transform="rotate(-90 887 260)" fill="#DFCA20"/>
<circle cx="887" cy="212" r="9" transform="rotate(-90 887 212)" fill="#DFCA20"/>
<circle cx="887" cy="236" r="9" transform="rotate(-90 887 236)" fill="#DFCA20"/>
<circle cx="887" cy="188" r="9" transform="rotate(-90 887 188)" fill="#DFCA20"/>
<circle cx="887" cy="164" r="9" transform="rotate(-90 887 164)" fill="#DFCA20"/>
<circle cx="887" cy="116" r="9" transform="rotate(-90 887 116)" fill="#DFCA20"/>
<circle cx="887" cy="140" r="9" transform="rotate(-90 887 140)" fill="#DFCA20"/>
<circle cx="843" cy="361" r="9" transform="rotate(-180 843 361)" fill="#DFCA20"/>
<circle cx="747" cy="361" r="9" transform="rotate(-180 747 361)" fill="#DFCA20"/>
<circle cx="795" cy="361" r="9" transform="rotate(-180 795 361)" fill="#DFCA20"/>
<circle cx="699" cy="361" r="9" transform="rotate(-180 699 361)" fill="#DFCA20"/>
<circle cx="819" cy="361" r="9" transform="rotate(-180 819 361)" fill="#DFCA20"/>
<circle cx="723" cy="361" r="9" transform="rotate(-180 723 361)" fill="#DFCA20"/>
<circle cx="771" cy="361" r="9" transform="rotate(-180 771 361)" fill="#DFCA20"/>
<circle cx="675" cy="361" r="9" transform="rotate(-180 675 361)" fill="#DFCA20"/>
<circle cx="883" cy="333" r="9" transform="rotate(-180 883 333)" fill="#DFCA20"/>
<circle cx="867" cy="352" r="9" transform="rotate(-180 867 352)" fill="#DFCA20"/>
<circle cx="887" cy="309" r="9" transform="rotate(-180 887 309)" fill="#DFCA20"/>
<circle cx="887" cy="285" r="9" transform="rotate(-180 887 285)" fill="#DFCA20"/>
<circle cx="651" cy="361" r="9" transform="rotate(-180 651 361)" fill="#DFCA20"/>
<circle cx="555" cy="361" r="9" transform="rotate(-180 555 361)" fill="#DFCA20"/>
<circle cx="603" cy="361" r="9" transform="rotate(-180 603 361)" fill="#DFCA20"/>
<circle cx="507" cy="361" r="9" transform="rotate(-180 507 361)" fill="#DFCA20"/>
<circle cx="627" cy="361" r="9" transform="rotate(-180 627 361)" fill="#DFCA20"/>
<circle cx="531" cy="361" r="9" transform="rotate(-180 531 361)" fill="#DFCA20"/>
<circle cx="579" cy="361" r="9" transform="rotate(-180 579 361)" fill="#DFCA20"/>
<circle cx="483" cy="361" r="9" transform="rotate(-180 483 361)" fill="#DFCA20"/>
<circle cx="459" cy="361" r="9" transform="rotate(-180 459 361)" fill="#DFCA20"/>
<circle cx="363" cy="361" r="9" transform="rotate(-180 363 361)" fill="#DFCA20"/>
<circle cx="411" cy="361" r="9" transform="rotate(-180 411 361)" fill="#DFCA20"/>
<circle cx="315" cy="361" r="9" transform="rotate(-180 315 361)" fill="#DFCA20"/>
<circle cx="435" cy="361" r="9" transform="rotate(-180 435 361)" fill="#DFCA20"/>
<circle cx="339" cy="361" r="9" transform="rotate(-180 339 361)" fill="#DFCA20"/>
<circle cx="387" cy="361" r="9" transform="rotate(-180 387 361)" fill="#DFCA20"/>
<circle cx="291" cy="361" r="9" transform="rotate(-180 291 361)" fill="#DFCA20"/>
<circle cx="267" cy="361" r="9" transform="rotate(-180 267 361)" fill="#DFCA20"/>
<circle cx="171" cy="361" r="9" transform="rotate(-180 171 361)" fill="#DFCA20"/>
<circle cx="219" cy="361" r="9" transform="rotate(-180 219 361)" fill="#DFCA20"/>
<circle cx="243" cy="361" r="9" transform="rotate(-180 243 361)" fill="#DFCA20"/>
<circle cx="147" cy="361" r="9" transform="rotate(-180 147 361)" fill="#DFCA20"/>
<circle cx="123" cy="361" r="9" transform="rotate(-180 123 361)" fill="#DFCA20"/>
<circle cx="195" cy="361" r="9" transform="rotate(-180 195 361)" fill="#DFCA20"/>
<circle cx="23" cy="317" r="9" transform="rotate(-90 23 317)" fill="#DFCA20"/>
<circle cx="23" cy="293" r="9" transform="rotate(-90 23 293)" fill="#DFCA20"/>
<circle cx="51" cy="357" r="9" transform="rotate(-90 51 357)" fill="#DFCA20"/>
<circle cx="32" cy="341" r="9" transform="rotate(-90 32 341)" fill="#DFCA20"/>
<circle cx="75" cy="361" r="9" transform="rotate(-90 75 361)" fill="#DFCA20"/>
<circle cx="99" cy="361" r="9" transform="rotate(-90 99 361)" fill="#DFCA20"/>
</svg>
