<svg width="1472" height="1815" viewBox="0 0 1472 1815" fill="none" xmlns="http://www.w3.org/2000/svg">
<path d="M1450 737V1077L10 1814V1474L1450 737Z" fill="black"/>
<path d="M1450 0V340L10 1077V737L1450 0Z" fill="black"/>
<mask id="path-3-inside-1_1209_2" fill="white">
<path fill-rule="evenodd" clip-rule="evenodd" d="M368 0H0V10.4621H23.6571V34.0027H0V303.412H23.6571V326.953H0V340.032H368V0ZM36.8 10.4621H60.4571V34.0027H36.8V10.4621ZM97.2571 10.4621H73.6V34.0027H97.2571V10.4621ZM294.4 10.4621H318.057V34.0027H294.4V10.4621ZM354.857 10.4621H331.2V34.0027H354.857V10.4621ZM220.8 10.4621H244.457V34.0027H220.8V10.4621ZM281.257 10.4621H257.6V34.0027H281.257V10.4621ZM110.4 10.4621H134.057V34.0027H110.4V10.4621ZM170.857 10.4621H147.2V34.0027H170.857V10.4621ZM184 10.4621H207.657V34.0027H184V10.4621ZM36.8 303.412H60.4571V326.953H36.8V303.412ZM97.2571 303.412H73.6V326.953H97.2571V303.412ZM294.4 303.412H318.057V326.953H294.4V303.412ZM354.857 303.412H331.2V326.953H354.857V303.412ZM220.8 303.412H244.457V326.953H220.8V303.412ZM281.257 303.412H257.6V326.953H281.257V303.412ZM110.4 303.412H134.057V326.953H110.4V303.412ZM170.857 303.412H147.2V326.953H170.857V303.412ZM184 303.412H207.657V326.953H184V303.412ZM736 0H368V10.4621H391.657V34.0027H368V303.412H391.657V326.953H368V340.032H736H1104V0H736ZM736 326.953V303.412H759.657V326.953H736ZM736 34.0027V10.4621H759.657V34.0027H736ZM404.8 10.4621H428.457V34.0027H404.8V10.4621ZM465.257 10.4621H441.6V34.0027H465.257V10.4621ZM662.4 10.4621H686.057V34.0027H662.4V10.4621ZM722.857 10.4621H699.2V34.0027H722.857V10.4621ZM588.8 10.4621H612.457V34.0027H588.8V10.4621ZM649.257 10.4621H625.6V34.0027H649.257V10.4621ZM478.4 10.4621H502.057V34.0027H478.4V10.4621ZM538.857 10.4621H515.2V34.0027H538.857V10.4621ZM552 10.4621H575.657V34.0027H552V10.4621ZM404.8 303.412H428.457V326.953H404.8V303.412ZM465.257 303.412H441.6V326.953H465.257V303.412ZM662.4 303.412H686.057V326.953H662.4V303.412ZM722.857 303.412H699.2V326.953H722.857V303.412ZM588.8 303.412H612.457V326.953H588.8V303.412ZM649.257 303.412H625.6V326.953H649.257V303.412ZM478.4 303.412H502.057V326.953H478.4V303.412ZM538.857 303.412H515.2V326.953H538.857V303.412ZM552 303.412H575.657V326.953H552V303.412ZM796.457 10.4621H772.8V34.0027H796.457V10.4621ZM809.6 10.4621H833.257V34.0027H809.6V10.4621ZM1054.06 10.4621H1030.4V34.0027H1054.06V10.4621ZM1067.2 10.4621H1090.86V34.0027H1067.2V10.4621ZM980.457 10.4621H956.8V34.0027H980.457V10.4621ZM993.6 10.4621H1017.26V34.0027H993.6V10.4621ZM870.057 10.4621H846.4V34.0027H870.057V10.4621ZM883.2 10.4621H906.857V34.0027H883.2V10.4621ZM943.657 10.4621H920V34.0027H943.657V10.4621ZM796.457 303.412H772.8V326.953H796.457V303.412ZM809.6 303.412H833.257V326.953H809.6V303.412ZM1054.06 303.412H1030.4V326.953H1054.06V303.412ZM1067.2 303.412H1090.86V326.953H1067.2V303.412ZM980.457 303.412H956.8V326.953H980.457V303.412ZM993.6 303.412H1017.26V326.953H993.6V303.412ZM870.057 303.412H846.4V326.953H870.057V303.412ZM883.2 303.412H906.857V326.953H883.2V303.412ZM943.657 303.412H920V326.953H943.657V303.412ZM1472 0H1104V10.4621H1127.66V34.0027H1104V303.412H1127.66V326.953H1104V340.032H1472V0ZM1140.8 10.4621H1164.46V34.0027H1140.8V10.4621ZM1201.26 10.4621H1177.6V34.0027H1201.26V10.4621ZM1398.4 10.4621H1422.06V34.0027H1398.4V10.4621ZM1458.86 10.4621H1435.2V34.0027H1458.86V10.4621ZM1324.8 10.4621H1348.46V34.0027H1324.8V10.4621ZM1385.26 10.4621H1361.6V34.0027H1385.26V10.4621ZM1214.4 10.4621H1238.06V34.0027H1214.4V10.4621ZM1274.86 10.4621H1251.2V34.0027H1274.86V10.4621ZM1288 10.4621H1311.66V34.0027H1288V10.4621ZM1140.8 303.412H1164.46V326.953H1140.8V303.412ZM1201.26 303.412H1177.6V326.953H1201.26V303.412ZM1398.4 303.412H1422.06V326.953H1398.4V303.412ZM1458.86 303.412H1435.2V326.953H1458.86V303.412ZM1324.8 303.412H1348.46V326.953H1324.8V303.412ZM1385.26 303.412H1361.6V326.953H1385.26V303.412ZM1214.4 303.412H1238.06V326.953H1214.4V303.412ZM1274.86 303.412H1251.2V326.953H1274.86V303.412ZM1288 303.412H1311.66V326.953H1288V303.412Z"/>
</mask>
<path fill-rule="evenodd" clip-rule="evenodd" d="M368 0H0V10.4621H23.6571V34.0027H0V303.412H23.6571V326.953H0V340.032H368V0ZM36.8 10.4621H60.4571V34.0027H36.8V10.4621ZM97.2571 10.4621H73.6V34.0027H97.2571V10.4621ZM294.4 10.4621H318.057V34.0027H294.4V10.4621ZM354.857 10.4621H331.2V34.0027H354.857V10.4621ZM220.8 10.4621H244.457V34.0027H220.8V10.4621ZM281.257 10.4621H257.6V34.0027H281.257V10.4621ZM110.4 10.4621H134.057V34.0027H110.4V10.4621ZM170.857 10.4621H147.2V34.0027H170.857V10.4621ZM184 10.4621H207.657V34.0027H184V10.4621ZM36.8 303.412H60.4571V326.953H36.8V303.412ZM97.2571 303.412H73.6V326.953H97.2571V303.412ZM294.4 303.412H318.057V326.953H294.4V303.412ZM354.857 303.412H331.2V326.953H354.857V303.412ZM220.8 303.412H244.457V326.953H220.8V303.412ZM281.257 303.412H257.6V326.953H281.257V303.412ZM110.4 303.412H134.057V326.953H110.4V303.412ZM170.857 303.412H147.2V326.953H170.857V303.412ZM184 303.412H207.657V326.953H184V303.412ZM736 0H368V10.4621H391.657V34.0027H368V303.412H391.657V326.953H368V340.032H736H1104V0H736ZM736 326.953V303.412H759.657V326.953H736ZM736 34.0027V10.4621H759.657V34.0027H736ZM404.8 10.4621H428.457V34.0027H404.8V10.4621ZM465.257 10.4621H441.6V34.0027H465.257V10.4621ZM662.4 10.4621H686.057V34.0027H662.4V10.4621ZM722.857 10.4621H699.2V34.0027H722.857V10.4621ZM588.8 10.4621H612.457V34.0027H588.8V10.4621ZM649.257 10.4621H625.6V34.0027H649.257V10.4621ZM478.4 10.4621H502.057V34.0027H478.4V10.4621ZM538.857 10.4621H515.2V34.0027H538.857V10.4621ZM552 10.4621H575.657V34.0027H552V10.4621ZM404.8 303.412H428.457V326.953H404.8V303.412ZM465.257 303.412H441.6V326.953H465.257V303.412ZM662.4 303.412H686.057V326.953H662.4V303.412ZM722.857 303.412H699.2V326.953H722.857V303.412ZM588.8 303.412H612.457V326.953H588.8V303.412ZM649.257 303.412H625.6V326.953H649.257V303.412ZM478.4 303.412H502.057V326.953H478.4V303.412ZM538.857 303.412H515.2V326.953H538.857V303.412ZM552 303.412H575.657V326.953H552V303.412ZM796.457 10.4621H772.8V34.0027H796.457V10.4621ZM809.6 10.4621H833.257V34.0027H809.6V10.4621ZM1054.06 10.4621H1030.4V34.0027H1054.06V10.4621ZM1067.2 10.4621H1090.86V34.0027H1067.2V10.4621ZM980.457 10.4621H956.8V34.0027H980.457V10.4621ZM993.6 10.4621H1017.26V34.0027H993.6V10.4621ZM870.057 10.4621H846.4V34.0027H870.057V10.4621ZM883.2 10.4621H906.857V34.0027H883.2V10.4621ZM943.657 10.4621H920V34.0027H943.657V10.4621ZM796.457 303.412H772.8V326.953H796.457V303.412ZM809.6 303.412H833.257V326.953H809.6V303.412ZM1054.06 303.412H1030.4V326.953H1054.06V303.412ZM1067.2 303.412H1090.86V326.953H1067.2V303.412ZM980.457 303.412H956.8V326.953H980.457V303.412ZM993.6 303.412H1017.26V326.953H993.6V303.412ZM870.057 303.412H846.4V326.953H870.057V303.412ZM883.2 303.412H906.857V326.953H883.2V303.412ZM943.657 303.412H920V326.953H943.657V303.412ZM1472 0H1104V10.4621H1127.66V34.0027H1104V303.412H1127.66V326.953H1104V340.032H1472V0ZM1140.8 10.4621H1164.46V34.0027H1140.8V10.4621ZM1201.26 10.4621H1177.6V34.0027H1201.26V10.4621ZM1398.4 10.4621H1422.06V34.0027H1398.4V10.4621ZM1458.86 10.4621H1435.2V34.0027H1458.86V10.4621ZM1324.8 10.4621H1348.46V34.0027H1324.8V10.4621ZM1385.26 10.4621H1361.6V34.0027H1385.26V10.4621ZM1214.4 10.4621H1238.06V34.0027H1214.4V10.4621ZM1274.86 10.4621H1251.2V34.0027H1274.86V10.4621ZM1288 10.4621H1311.66V34.0027H1288V10.4621ZM1140.8 303.412H1164.46V326.953H1140.8V303.412ZM1201.26 303.412H1177.6V326.953H1201.26V303.412ZM1398.4 303.412H1422.06V326.953H1398.4V303.412ZM1458.86 303.412H1435.2V326.953H1458.86V303.412ZM1324.8 303.412H1348.46V326.953H1324.8V303.412ZM1385.26 303.412H1361.6V326.953H1385.26V303.412ZM1214.4 303.412H1238.06V326.953H1214.4V303.412ZM1274.86 303.412H1251.2V326.953H1274.86V303.412ZM1288 303.412H1311.66V326.953H1288V303.412Z" fill="black"/>
<path d="M0 0V-1H-1V0H0ZM368 0H369V-1H368V0ZM0 10.4621H-1V11.4621H0V10.4621ZM23.6571 10.4621H24.6571V9.46205H23.6571V10.4621ZM23.6571 34.0027V35.0027H24.6571V34.0027H23.6571ZM0 34.0027V33.0027H-1V34.0027H0ZM0 303.412H-1V304.412H0V303.412ZM23.6571 303.412H24.6571V302.412H23.6571V303.412ZM23.6571 326.953V327.953H24.6571V326.953H23.6571ZM0 326.953V325.953H-1V326.953H0ZM0 340.032H-1V341.032H0V340.032ZM368 340.032V341.032H369V340.032H368ZM60.4571 10.4621H61.4571V9.46205H60.4571V10.4621ZM36.8 10.4621V9.46205H35.8V10.4621H36.8ZM60.4571 34.0027V35.0027H61.4571V34.0027H60.4571ZM36.8 34.0027H35.8V35.0027H36.8V34.0027ZM73.6 10.4621V9.46205H72.6V10.4621H73.6ZM97.2571 10.4621H98.2571V9.46205H97.2571V10.4621ZM73.6 34.0027H72.6V35.0027H73.6V34.0027ZM97.2571 34.0027V35.0027H98.2571V34.0027H97.2571ZM318.057 10.4621H319.057V9.46205H318.057V10.4621ZM294.4 10.4621V9.46205H293.4V10.4621H294.4ZM318.057 34.0027V35.0027H319.057V34.0027H318.057ZM294.4 34.0027H293.4V35.0027H294.4V34.0027ZM331.2 10.4621V9.46205H330.2V10.4621H331.2ZM354.857 10.4621H355.857V9.46205H354.857V10.4621ZM331.2 34.0027H330.2V35.0027H331.2V34.0027ZM354.857 34.0027V35.0027H355.857V34.0027H354.857ZM244.457 10.4621H245.457V9.46205H244.457V10.4621ZM220.8 10.4621V9.46205H219.8V10.4621H220.8ZM244.457 34.0027V35.0027H245.457V34.0027H244.457ZM220.8 34.0027H219.8V35.0027H220.8V34.0027ZM257.6 10.4621V9.46205H256.6V10.4621H257.6ZM281.257 10.4621H282.257V9.46205H281.257V10.4621ZM257.6 34.0027H256.6V35.0027H257.6V34.0027ZM281.257 34.0027V35.0027H282.257V34.0027H281.257ZM134.057 10.4621H135.057V9.46205H134.057V10.4621ZM110.4 10.4621V9.46205H109.4V10.4621H110.4ZM134.057 34.0027V35.0027H135.057V34.0027H134.057ZM110.4 34.0027H109.4V35.0027H110.4V34.0027ZM147.2 10.4621V9.46205H146.2V10.4621H147.2ZM170.857 10.4621H171.857V9.46205H170.857V10.4621ZM147.2 34.0027H146.2V35.0027H147.2V34.0027ZM170.857 34.0027V35.0027H171.857V34.0027H170.857ZM207.657 10.4621H208.657V9.46205H207.657V10.4621ZM184 10.4621V9.46205H183V10.4621H184ZM207.657 34.0027V35.0027H208.657V34.0027H207.657ZM184 34.0027H183V35.0027H184V34.0027ZM60.4571 303.412H61.4571V302.412H60.4571V303.412ZM36.8 303.412V302.412H35.8V303.412H36.8ZM60.4571 326.953V327.953H61.4571V326.953H60.4571ZM36.8 326.953H35.8V327.953H36.8V326.953ZM73.6 303.412V302.412H72.6V303.412H73.6ZM97.2571 303.412H98.2571V302.412H97.2571V303.412ZM73.6 326.953H72.6V327.953H73.6V326.953ZM97.2571 326.953V327.953H98.2571V326.953H97.2571ZM318.057 303.412H319.057V302.412H318.057V303.412ZM294.4 303.412V302.412H293.4V303.412H294.4ZM318.057 326.953V327.953H319.057V326.953H318.057ZM294.4 326.953H293.4V327.953H294.4V326.953ZM331.2 303.412V302.412H330.2V303.412H331.2ZM354.857 303.412H355.857V302.412H354.857V303.412ZM331.2 326.953H330.2V327.953H331.2V326.953ZM354.857 326.953V327.953H355.857V326.953H354.857ZM244.457 303.412H245.457V302.412H244.457V303.412ZM220.8 303.412V302.412H219.8V303.412H220.8ZM244.457 326.953V327.953H245.457V326.953H244.457ZM220.8 326.953H219.8V327.953H220.8V326.953ZM257.6 303.412V302.412H256.6V303.412H257.6ZM281.257 303.412H282.257V302.412H281.257V303.412ZM257.6 326.953H256.6V327.953H257.6V326.953ZM281.257 326.953V327.953H282.257V326.953H281.257ZM134.057 303.412H135.057V302.412H134.057V303.412ZM110.4 303.412V302.412H109.4V303.412H110.4ZM134.057 326.953V327.953H135.057V326.953H134.057ZM110.4 326.953H109.4V327.953H110.4V326.953ZM147.2 303.412V302.412H146.2V303.412H147.2ZM170.857 303.412H171.857V302.412H170.857V303.412ZM147.2 326.953H146.2V327.953H147.2V326.953ZM170.857 326.953V327.953H171.857V326.953H170.857ZM207.657 303.412H208.657V302.412H207.657V303.412ZM184 303.412V302.412H183V303.412H184ZM207.657 326.953V327.953H208.657V326.953H207.657ZM184 326.953H183V327.953H184V326.953ZM368 0V-1H367V0H368ZM368 10.4621H367V11.4621H368V10.4621ZM391.657 10.4621H392.657V9.46205H391.657V10.4621ZM391.657 34.0027V35.0027H392.657V34.0027H391.657ZM368 34.0027V33.0027H367V34.0027H368ZM368 303.412H367V304.412H368V303.412ZM391.657 303.412H392.657V302.412H391.657V303.412ZM391.657 326.953V327.953H392.657V326.953H391.657ZM368 326.953V325.953H367V326.953H368ZM368 340.032H367V341.032H368V340.032ZM1104 340.032V341.032H1105V340.032H1104ZM1104 0H1105V-1H1104V0ZM736 303.412V302.412H735V303.412H736ZM736 326.953H735V327.953H736V326.953ZM759.657 303.412H760.657V302.412H759.657V303.412ZM759.657 326.953V327.953H760.657V326.953H759.657ZM736 10.4621V9.46205H735V10.4621H736ZM736 34.0027H735V35.0027H736V34.0027ZM759.657 10.4621H760.657V9.46205H759.657V10.4621ZM759.657 34.0027V35.0027H760.657V34.0027H759.657ZM428.457 10.4621H429.457V9.46205H428.457V10.4621ZM404.8 10.4621V9.46205H403.8V10.4621H404.8ZM428.457 34.0027V35.0027H429.457V34.0027H428.457ZM404.8 34.0027H403.8V35.0027H404.8V34.0027ZM441.6 10.4621V9.46205H440.6V10.4621H441.6ZM465.257 10.4621H466.257V9.46205H465.257V10.4621ZM441.6 34.0027H440.6V35.0027H441.6V34.0027ZM465.257 34.0027V35.0027H466.257V34.0027H465.257ZM686.057 10.4621H687.057V9.46205H686.057V10.4621ZM662.4 10.4621V9.46205H661.4V10.4621H662.4ZM686.057 34.0027V35.0027H687.057V34.0027H686.057ZM662.4 34.0027H661.4V35.0027H662.4V34.0027ZM699.2 10.4621V9.46205H698.2V10.4621H699.2ZM722.857 10.4621H723.857V9.46205H722.857V10.4621ZM699.2 34.0027H698.2V35.0027H699.2V34.0027ZM722.857 34.0027V35.0027H723.857V34.0027H722.857ZM612.457 10.4621H613.457V9.46205H612.457V10.4621ZM588.8 10.4621V9.46205H587.8V10.4621H588.8ZM612.457 34.0027V35.0027H613.457V34.0027H612.457ZM588.8 34.0027H587.8V35.0027H588.8V34.0027ZM625.6 10.4621V9.46205H624.6V10.4621H625.6ZM649.257 10.4621H650.257V9.46205H649.257V10.4621ZM625.6 34.0027H624.6V35.0027H625.6V34.0027ZM649.257 34.0027V35.0027H650.257V34.0027H649.257ZM502.057 10.4621H503.057V9.46205H502.057V10.4621ZM478.4 10.4621V9.46205H477.4V10.4621H478.4ZM502.057 34.0027V35.0027H503.057V34.0027H502.057ZM478.4 34.0027H477.4V35.0027H478.4V34.0027ZM515.2 10.4621V9.46205H514.2V10.4621H515.2ZM538.857 10.4621H539.857V9.46205H538.857V10.4621ZM515.2 34.0027H514.2V35.0027H515.2V34.0027ZM538.857 34.0027V35.0027H539.857V34.0027H538.857ZM575.657 10.4621H576.657V9.46205H575.657V10.4621ZM552 10.4621V9.46205H551V10.4621H552ZM575.657 34.0027V35.0027H576.657V34.0027H575.657ZM552 34.0027H551V35.0027H552V34.0027ZM428.457 303.412H429.457V302.412H428.457V303.412ZM404.8 303.412V302.412H403.8V303.412H404.8ZM428.457 326.953V327.953H429.457V326.953H428.457ZM404.8 326.953H403.8V327.953H404.8V326.953ZM441.6 303.412V302.412H440.6V303.412H441.6ZM465.257 303.412H466.257V302.412H465.257V303.412ZM441.6 326.953H440.6V327.953H441.6V326.953ZM465.257 326.953V327.953H466.257V326.953H465.257ZM686.057 303.412H687.057V302.412H686.057V303.412ZM662.4 303.412V302.412H661.4V303.412H662.4ZM686.057 326.953V327.953H687.057V326.953H686.057ZM662.4 326.953H661.4V327.953H662.4V326.953ZM699.2 303.412V302.412H698.2V303.412H699.2ZM722.857 303.412H723.857V302.412H722.857V303.412ZM699.2 326.953H698.2V327.953H699.2V326.953ZM722.857 326.953V327.953H723.857V326.953H722.857ZM612.457 303.412H613.457V302.412H612.457V303.412ZM588.8 303.412V302.412H587.8V303.412H588.8ZM612.457 326.953V327.953H613.457V326.953H612.457ZM588.8 326.953H587.8V327.953H588.8V326.953ZM625.6 303.412V302.412H624.6V303.412H625.6ZM649.257 303.412H650.257V302.412H649.257V303.412ZM625.6 326.953H624.6V327.953H625.6V326.953ZM649.257 326.953V327.953H650.257V326.953H649.257ZM502.057 303.412H503.057V302.412H502.057V303.412ZM478.4 303.412V302.412H477.4V303.412H478.4ZM502.057 326.953V327.953H503.057V326.953H502.057ZM478.4 326.953H477.4V327.953H478.4V326.953ZM515.2 303.412V302.412H514.2V303.412H515.2ZM538.857 303.412H539.857V302.412H538.857V303.412ZM515.2 326.953H514.2V327.953H515.2V326.953ZM538.857 326.953V327.953H539.857V326.953H538.857ZM575.657 303.412H576.657V302.412H575.657V303.412ZM552 303.412V302.412H551V303.412H552ZM575.657 326.953V327.953H576.657V326.953H575.657ZM552 326.953H551V327.953H552V326.953ZM772.8 10.4621V9.46205H771.8V10.4621H772.8ZM796.457 10.4621H797.457V9.46205H796.457V10.4621ZM772.8 34.0027H771.8V35.0027H772.8V34.0027ZM796.457 34.0027V35.0027H797.457V34.0027H796.457ZM833.257 10.4621H834.257V9.46205H833.257V10.4621ZM809.6 10.4621V9.46205H808.6V10.4621H809.6ZM833.257 34.0027V35.0027H834.257V34.0027H833.257ZM809.6 34.0027H808.6V35.0027H809.6V34.0027ZM1030.4 10.4621V9.46205H1029.4V10.4621H1030.4ZM1054.06 10.4621H1055.06V9.46205H1054.06V10.4621ZM1030.4 34.0027H1029.4V35.0027H1030.4V34.0027ZM1054.06 34.0027V35.0027H1055.06V34.0027H1054.06ZM1090.86 10.4621H1091.86V9.46205H1090.86V10.4621ZM1067.2 10.4621V9.46205H1066.2V10.4621H1067.2ZM1090.86 34.0027V35.0027H1091.86V34.0027H1090.86ZM1067.2 34.0027H1066.2V35.0027H1067.2V34.0027ZM956.8 10.4621V9.46205H955.8V10.4621H956.8ZM980.457 10.4621H981.457V9.46205H980.457V10.4621ZM956.8 34.0027H955.8V35.0027H956.8V34.0027ZM980.457 34.0027V35.0027H981.457V34.0027H980.457ZM1017.26 10.4621H1018.26V9.46205H1017.26V10.4621ZM993.6 10.4621V9.46205H992.6V10.4621H993.6ZM1017.26 34.0027V35.0027H1018.26V34.0027H1017.26ZM993.6 34.0027H992.6V35.0027H993.6V34.0027ZM846.4 10.4621V9.46205H845.4V10.4621H846.4ZM870.057 10.4621H871.057V9.46205H870.057V10.4621ZM846.4 34.0027H845.4V35.0027H846.4V34.0027ZM870.057 34.0027V35.0027H871.057V34.0027H870.057ZM906.857 10.4621H907.857V9.46205H906.857V10.4621ZM883.2 10.4621V9.46205H882.2V10.4621H883.2ZM906.857 34.0027V35.0027H907.857V34.0027H906.857ZM883.2 34.0027H882.2V35.0027H883.2V34.0027ZM920 10.4621V9.46205H919V10.4621H920ZM943.657 10.4621H944.657V9.46205H943.657V10.4621ZM920 34.0027H919V35.0027H920V34.0027ZM943.657 34.0027V35.0027H944.657V34.0027H943.657ZM772.8 303.412V302.412H771.8V303.412H772.8ZM796.457 303.412H797.457V302.412H796.457V303.412ZM772.8 326.953H771.8V327.953H772.8V326.953ZM796.457 326.953V327.953H797.457V326.953H796.457ZM833.257 303.412H834.257V302.412H833.257V303.412ZM809.6 303.412V302.412H808.6V303.412H809.6ZM833.257 326.953V327.953H834.257V326.953H833.257ZM809.6 326.953H808.6V327.953H809.6V326.953ZM1030.4 303.412V302.412H1029.4V303.412H1030.4ZM1054.06 303.412H1055.06V302.412H1054.06V303.412ZM1030.4 326.953H1029.4V327.953H1030.4V326.953ZM1054.06 326.953V327.953H1055.06V326.953H1054.06ZM1090.86 303.412H1091.86V302.412H1090.86V303.412ZM1067.2 303.412V302.412H1066.2V303.412H1067.2ZM1090.86 326.953V327.953H1091.86V326.953H1090.86ZM1067.2 326.953H1066.2V327.953H1067.2V326.953ZM956.8 303.412V302.412H955.8V303.412H956.8ZM980.457 303.412H981.457V302.412H980.457V303.412ZM956.8 326.953H955.8V327.953H956.8V326.953ZM980.457 326.953V327.953H981.457V326.953H980.457ZM1017.26 303.412H1018.26V302.412H1017.26V303.412ZM993.6 303.412V302.412H992.6V303.412H993.6ZM1017.26 326.953V327.953H1018.26V326.953H1017.26ZM993.6 326.953H992.6V327.953H993.6V326.953ZM846.4 303.412V302.412H845.4V303.412H846.4ZM870.057 303.412H871.057V302.412H870.057V303.412ZM846.4 326.953H845.4V327.953H846.4V326.953ZM870.057 326.953V327.953H871.057V326.953H870.057ZM906.857 303.412H907.857V302.412H906.857V303.412ZM883.2 303.412V302.412H882.2V303.412H883.2ZM906.857 326.953V327.953H907.857V326.953H906.857ZM883.2 326.953H882.2V327.953H883.2V326.953ZM920 303.412V302.412H919V303.412H920ZM943.657 303.412H944.657V302.412H943.657V303.412ZM920 326.953H919V327.953H920V326.953ZM943.657 326.953V327.953H944.657V326.953H943.657ZM1104 0V-1H1103V0H1104ZM1472 0H1473V-1H1472V0ZM1104 10.4621H1103V11.4621H1104V10.4621ZM1127.66 10.4621H1128.66V9.46205H1127.66V10.4621ZM1127.66 34.0027V35.0027H1128.66V34.0027H1127.66ZM1104 34.0027V33.0027H1103V34.0027H1104ZM1104 303.412H1103V304.412H1104V303.412ZM1127.66 303.412H1128.66V302.412H1127.66V303.412ZM1127.66 326.953V327.953H1128.66V326.953H1127.66ZM1104 326.953V325.953H1103V326.953H1104ZM1104 340.032H1103V341.032H1104V340.032ZM1472 340.032V341.032H1473V340.032H1472ZM1164.46 10.4621H1165.46V9.46205H1164.46V10.4621ZM1140.8 10.4621V9.46205H1139.8V10.4621H1140.8ZM1164.46 34.0027V35.0027H1165.46V34.0027H1164.46ZM1140.8 34.0027H1139.8V35.0027H1140.8V34.0027ZM1177.6 10.4621V9.46205H1176.6V10.4621H1177.6ZM1201.26 10.4621H1202.26V9.46205H1201.26V10.4621ZM1177.6 34.0027H1176.6V35.0027H1177.6V34.0027ZM1201.26 34.0027V35.0027H1202.26V34.0027H1201.26ZM1422.06 10.4621H1423.06V9.46205H1422.06V10.4621ZM1398.4 10.4621V9.46205H1397.4V10.4621H1398.4ZM1422.06 34.0027V35.0027H1423.06V34.0027H1422.06ZM1398.4 34.0027H1397.4V35.0027H1398.4V34.0027ZM1435.2 10.4621V9.46205H1434.2V10.4621H1435.2ZM1458.86 10.4621H1459.86V9.46205H1458.86V10.4621ZM1435.2 34.0027H1434.2V35.0027H1435.2V34.0027ZM1458.86 34.0027V35.0027H1459.86V34.0027H1458.86ZM1348.46 10.4621H1349.46V9.46205H1348.46V10.4621ZM1324.8 10.4621V9.46205H1323.8V10.4621H1324.8ZM1348.46 34.0027V35.0027H1349.46V34.0027H1348.46ZM1324.8 34.0027H1323.8V35.0027H1324.8V34.0027ZM1361.6 10.4621V9.46205H1360.6V10.4621H1361.6ZM1385.26 10.4621H1386.26V9.46205H1385.26V10.4621ZM1361.6 34.0027H1360.6V35.0027H1361.6V34.0027ZM1385.26 34.0027V35.0027H1386.26V34.0027H1385.26ZM1238.06 10.4621H1239.06V9.46205H1238.06V10.4621ZM1214.4 10.4621V9.46205H1213.4V10.4621H1214.4ZM1238.06 34.0027V35.0027H1239.06V34.0027H1238.06ZM1214.4 34.0027H1213.4V35.0027H1214.4V34.0027ZM1251.2 10.4621V9.46205H1250.2V10.4621H1251.2ZM1274.86 10.4621H1275.86V9.46205H1274.86V10.4621ZM1251.2 34.0027H1250.2V35.0027H1251.2V34.0027ZM1274.86 34.0027V35.0027H1275.86V34.0027H1274.86ZM1311.66 10.4621H1312.66V9.46205H1311.66V10.4621ZM1288 10.4621V9.46205H1287V10.4621H1288ZM1311.66 34.0027V35.0027H1312.66V34.0027H1311.66ZM1288 34.0027H1287V35.0027H1288V34.0027ZM1164.46 303.412H1165.46V302.412H1164.46V303.412ZM1140.8 303.412V302.412H1139.8V303.412H1140.8ZM1164.46 326.953V327.953H1165.46V326.953H1164.46ZM1140.8 326.953H1139.8V327.953H1140.8V326.953ZM1177.6 303.412V302.412H1176.6V303.412H1177.6ZM1201.26 303.412H1202.26V302.412H1201.26V303.412ZM1177.6 326.953H1176.6V327.953H1177.6V326.953ZM1201.26 326.953V327.953H1202.26V326.953H1201.26ZM1422.06 303.412H1423.06V302.412H1422.06V303.412ZM1398.4 303.412V302.412H1397.4V303.412H1398.4ZM1422.06 326.953V327.953H1423.06V326.953H1422.06ZM1398.4 326.953H1397.4V327.953H1398.4V326.953ZM1435.2 303.412V302.412H1434.2V303.412H1435.2ZM1458.86 303.412H1459.86V302.412H1458.86V303.412ZM1435.2 326.953H1434.2V327.953H1435.2V326.953ZM1458.86 326.953V327.953H1459.86V326.953H1458.86ZM1348.46 303.412H1349.46V302.412H1348.46V303.412ZM1324.8 303.412V302.412H1323.8V303.412H1324.8ZM1348.46 326.953V327.953H1349.46V326.953H1348.46ZM1324.8 326.953H1323.8V327.953H1324.8V326.953ZM1361.6 303.412V302.412H1360.6V303.412H1361.6ZM1385.26 303.412H1386.26V302.412H1385.26V303.412ZM1361.6 326.953H1360.6V327.953H1361.6V326.953ZM1385.26 326.953V327.953H1386.26V326.953H1385.26ZM1238.06 303.412H1239.06V302.412H1238.06V303.412ZM1214.4 303.412V302.412H1213.4V303.412H1214.4ZM1238.06 326.953V327.953H1239.06V326.953H1238.06ZM1214.4 326.953H1213.4V327.953H1214.4V326.953ZM1251.2 303.412V302.412H1250.2V303.412H1251.2ZM1274.86 303.412H1275.86V302.412H1274.86V303.412ZM1251.2 326.953H1250.2V327.953H1251.2V326.953ZM1274.86 326.953V327.953H1275.86V326.953H1274.86ZM1311.66 303.412H1312.66V302.412H1311.66V303.412ZM1288 303.412V302.412H1287V303.412H1288ZM1311.66 326.953V327.953H1312.66V326.953H1311.66ZM1288 326.953H1287V327.953H1288V326.953ZM0 1H368V-1H0V1ZM1 10.4621V0H-1V10.4621H1ZM23.6571 9.46205H0V11.4621H23.6571V9.46205ZM24.6571 34.0027V10.4621H22.6571V34.0027H24.6571ZM0 35.0027H23.6571V33.0027H0V35.0027ZM1 303.412V34.0027H-1V303.412H1ZM23.6571 302.412H0V304.412H23.6571V302.412ZM24.6571 326.953V303.412H22.6571V326.953H24.6571ZM0 327.953H23.6571V325.953H0V327.953ZM1 340.032V326.953H-1V340.032H1ZM368 339.032H0V341.032H368V339.032ZM367 0V340.032H369V0H367ZM60.4571 9.46205H36.8V11.4621H60.4571V9.46205ZM61.4571 34.0027V10.4621H59.4571V34.0027H61.4571ZM36.8 35.0027H60.4571V33.0027H36.8V35.0027ZM35.8 10.4621V34.0027H37.8V10.4621H35.8ZM73.6 11.4621H97.2571V9.46205H73.6V11.4621ZM74.6 34.0027V10.4621H72.6V34.0027H74.6ZM97.2571 33.0027H73.6V35.0027H97.2571V33.0027ZM96.2571 10.4621V34.0027H98.2571V10.4621H96.2571ZM318.057 9.46205H294.4V11.4621H318.057V9.46205ZM319.057 34.0027V10.4621H317.057V34.0027H319.057ZM294.4 35.0027H318.057V33.0027H294.4V35.0027ZM293.4 10.4621V34.0027H295.4V10.4621H293.4ZM331.2 11.4621H354.857V9.46205H331.2V11.4621ZM332.2 34.0027V10.4621H330.2V34.0027H332.2ZM354.857 33.0027H331.2V35.0027H354.857V33.0027ZM353.857 10.4621V34.0027H355.857V10.4621H353.857ZM244.457 9.46205H220.8V11.4621H244.457V9.46205ZM245.457 34.0027V10.4621H243.457V34.0027H245.457ZM220.8 35.0027H244.457V33.0027H220.8V35.0027ZM219.8 10.4621V34.0027H221.8V10.4621H219.8ZM257.6 11.4621H281.257V9.46205H257.6V11.4621ZM258.6 34.0027V10.4621H256.6V34.0027H258.6ZM281.257 33.0027H257.6V35.0027H281.257V33.0027ZM280.257 10.4621V34.0027H282.257V10.4621H280.257ZM134.057 9.46205H110.4V11.4621H134.057V9.46205ZM135.057 34.0027V10.4621H133.057V34.0027H135.057ZM110.4 35.0027H134.057V33.0027H110.4V35.0027ZM109.4 10.4621V34.0027H111.4V10.4621H109.4ZM147.2 11.4621H170.857V9.46205H147.2V11.4621ZM148.2 34.0027V10.4621H146.2V34.0027H148.2ZM170.857 33.0027H147.2V35.0027H170.857V33.0027ZM169.857 10.4621V34.0027H171.857V10.4621H169.857ZM207.657 9.46205H184V11.4621H207.657V9.46205ZM208.657 34.0027V10.4621H206.657V34.0027H208.657ZM184 35.0027H207.657V33.0027H184V35.0027ZM183 10.4621V34.0027H185V10.4621H183ZM60.4571 302.412H36.8V304.412H60.4571V302.412ZM61.4571 326.953V303.412H59.4571V326.953H61.4571ZM36.8 327.953H60.4571V325.953H36.8V327.953ZM35.8 303.412V326.953H37.8V303.412H35.8ZM73.6 304.412H97.2571V302.412H73.6V304.412ZM74.6 326.953V303.412H72.6V326.953H74.6ZM97.2571 325.953H73.6V327.953H97.2571V325.953ZM96.2571 303.412V326.953H98.2571V303.412H96.2571ZM318.057 302.412H294.4V304.412H318.057V302.412ZM319.057 326.953V303.412H317.057V326.953H319.057ZM294.4 327.953H318.057V325.953H294.4V327.953ZM293.4 303.412V326.953H295.4V303.412H293.4ZM331.2 304.412H354.857V302.412H331.2V304.412ZM332.2 326.953V303.412H330.2V326.953H332.2ZM354.857 325.953H331.2V327.953H354.857V325.953ZM353.857 303.412V326.953H355.857V303.412H353.857ZM244.457 302.412H220.8V304.412H244.457V302.412ZM245.457 326.953V303.412H243.457V326.953H245.457ZM220.8 327.953H244.457V325.953H220.8V327.953ZM219.8 303.412V326.953H221.8V303.412H219.8ZM257.6 304.412H281.257V302.412H257.6V304.412ZM258.6 326.953V303.412H256.6V326.953H258.6ZM281.257 325.953H257.6V327.953H281.257V325.953ZM280.257 303.412V326.953H282.257V303.412H280.257ZM134.057 302.412H110.4V304.412H134.057V302.412ZM135.057 326.953V303.412H133.057V326.953H135.057ZM110.4 327.953H134.057V325.953H110.4V327.953ZM109.4 303.412V326.953H111.4V303.412H109.4ZM147.2 304.412H170.857V302.412H147.2V304.412ZM148.2 326.953V303.412H146.2V326.953H148.2ZM170.857 325.953H147.2V327.953H170.857V325.953ZM169.857 303.412V326.953H171.857V303.412H169.857ZM207.657 302.412H184V304.412H207.657V302.412ZM208.657 326.953V303.412H206.657V326.953H208.657ZM184 327.953H207.657V325.953H184V327.953ZM183 303.412V326.953H185V303.412H183ZM368 1H736V-1H368V1ZM369 10.4621V0H367V10.4621H369ZM391.657 9.46205H368V11.4621H391.657V9.46205ZM392.657 34.0027V10.4621H390.657V34.0027H392.657ZM368 35.0027H391.657V33.0027H368V35.0027ZM369 303.412V34.0027H367V303.412H369ZM391.657 302.412H368V304.412H391.657V302.412ZM392.657 326.953V303.412H390.657V326.953H392.657ZM368 327.953H391.657V325.953H368V327.953ZM369 340.032V326.953H367V340.032H369ZM736 339.032H368V341.032H736V339.032ZM1104 339.032H736V341.032H1104V339.032ZM1103 0V340.032H1105V0H1103ZM736 1H1104V-1H736V1ZM735 303.412V326.953H737V303.412H735ZM759.657 302.412H736V304.412H759.657V302.412ZM760.657 326.953V303.412H758.657V326.953H760.657ZM736 327.953H759.657V325.953H736V327.953ZM735 10.4621V34.0027H737V10.4621H735ZM759.657 9.46205H736V11.4621H759.657V9.46205ZM760.657 34.0027V10.4621H758.657V34.0027H760.657ZM736 35.0027H759.657V33.0027H736V35.0027ZM428.457 9.46205H404.8V11.4621H428.457V9.46205ZM429.457 34.0027V10.4621H427.457V34.0027H429.457ZM404.8 35.0027H428.457V33.0027H404.8V35.0027ZM403.8 10.4621V34.0027H405.8V10.4621H403.8ZM441.6 11.4621H465.257V9.46205H441.6V11.4621ZM442.6 34.0027V10.4621H440.6V34.0027H442.6ZM465.257 33.0027H441.6V35.0027H465.257V33.0027ZM464.257 10.4621V34.0027H466.257V10.4621H464.257ZM686.057 9.46205H662.4V11.4621H686.057V9.46205ZM687.057 34.0027V10.4621H685.057V34.0027H687.057ZM662.4 35.0027H686.057V33.0027H662.4V35.0027ZM661.4 10.4621V34.0027H663.4V10.4621H661.4ZM699.2 11.4621H722.857V9.46205H699.2V11.4621ZM700.2 34.0027V10.4621H698.2V34.0027H700.2ZM722.857 33.0027H699.2V35.0027H722.857V33.0027ZM721.857 10.4621V34.0027H723.857V10.4621H721.857ZM612.457 9.46205H588.8V11.4621H612.457V9.46205ZM613.457 34.0027V10.4621H611.457V34.0027H613.457ZM588.8 35.0027H612.457V33.0027H588.8V35.0027ZM587.8 10.4621V34.0027H589.8V10.4621H587.8ZM625.6 11.4621H649.257V9.46205H625.6V11.4621ZM626.6 34.0027V10.4621H624.6V34.0027H626.6ZM649.257 33.0027H625.6V35.0027H649.257V33.0027ZM648.257 10.4621V34.0027H650.257V10.4621H648.257ZM502.057 9.46205H478.4V11.4621H502.057V9.46205ZM503.057 34.0027V10.4621H501.057V34.0027H503.057ZM478.4 35.0027H502.057V33.0027H478.4V35.0027ZM477.4 10.4621V34.0027H479.4V10.4621H477.4ZM515.2 11.4621H538.857V9.46205H515.2V11.4621ZM516.2 34.0027V10.4621H514.2V34.0027H516.2ZM538.857 33.0027H515.2V35.0027H538.857V33.0027ZM537.857 10.4621V34.0027H539.857V10.4621H537.857ZM575.657 9.46205H552V11.4621H575.657V9.46205ZM576.657 34.0027V10.4621H574.657V34.0027H576.657ZM552 35.0027H575.657V33.0027H552V35.0027ZM551 10.4621V34.0027H553V10.4621H551ZM428.457 302.412H404.8V304.412H428.457V302.412ZM429.457 326.953V303.412H427.457V326.953H429.457ZM404.8 327.953H428.457V325.953H404.8V327.953ZM403.8 303.412V326.953H405.8V303.412H403.8ZM441.6 304.412H465.257V302.412H441.6V304.412ZM442.6 326.953V303.412H440.6V326.953H442.6ZM465.257 325.953H441.6V327.953H465.257V325.953ZM464.257 303.412V326.953H466.257V303.412H464.257ZM686.057 302.412H662.4V304.412H686.057V302.412ZM687.057 326.953V303.412H685.057V326.953H687.057ZM662.4 327.953H686.057V325.953H662.4V327.953ZM661.4 303.412V326.953H663.4V303.412H661.4ZM699.2 304.412H722.857V302.412H699.2V304.412ZM700.2 326.953V303.412H698.2V326.953H700.2ZM722.857 325.953H699.2V327.953H722.857V325.953ZM721.857 303.412V326.953H723.857V303.412H721.857ZM612.457 302.412H588.8V304.412H612.457V302.412ZM613.457 326.953V303.412H611.457V326.953H613.457ZM588.8 327.953H612.457V325.953H588.8V327.953ZM587.8 303.412V326.953H589.8V303.412H587.8ZM625.6 304.412H649.257V302.412H625.6V304.412ZM626.6 326.953V303.412H624.6V326.953H626.6ZM649.257 325.953H625.6V327.953H649.257V325.953ZM648.257 303.412V326.953H650.257V303.412H648.257ZM502.057 302.412H478.4V304.412H502.057V302.412ZM503.057 326.953V303.412H501.057V326.953H503.057ZM478.4 327.953H502.057V325.953H478.4V327.953ZM477.4 303.412V326.953H479.4V303.412H477.4ZM515.2 304.412H538.857V302.412H515.2V304.412ZM516.2 326.953V303.412H514.2V326.953H516.2ZM538.857 325.953H515.2V327.953H538.857V325.953ZM537.857 303.412V326.953H539.857V303.412H537.857ZM575.657 302.412H552V304.412H575.657V302.412ZM576.657 326.953V303.412H574.657V326.953H576.657ZM552 327.953H575.657V325.953H552V327.953ZM551 303.412V326.953H553V303.412H551ZM772.8 11.4621H796.457V9.46205H772.8V11.4621ZM773.8 34.0027V10.4621H771.8V34.0027H773.8ZM796.457 33.0027H772.8V35.0027H796.457V33.0027ZM795.457 10.4621V34.0027H797.457V10.4621H795.457ZM833.257 9.46205H809.6V11.4621H833.257V9.46205ZM834.257 34.0027V10.4621H832.257V34.0027H834.257ZM809.6 35.0027H833.257V33.0027H809.6V35.0027ZM808.6 10.4621V34.0027H810.6V10.4621H808.6ZM1030.4 11.4621H1054.06V9.46205H1030.4V11.4621ZM1031.4 34.0027V10.4621H1029.4V34.0027H1031.4ZM1054.06 33.0027H1030.4V35.0027H1054.06V33.0027ZM1053.06 10.4621V34.0027H1055.06V10.4621H1053.06ZM1090.86 9.46205H1067.2V11.4621H1090.86V9.46205ZM1091.86 34.0027V10.4621H1089.86V34.0027H1091.86ZM1067.2 35.0027H1090.86V33.0027H1067.2V35.0027ZM1066.2 10.4621V34.0027H1068.2V10.4621H1066.2ZM956.8 11.4621H980.457V9.46205H956.8V11.4621ZM957.8 34.0027V10.4621H955.8V34.0027H957.8ZM980.457 33.0027H956.8V35.0027H980.457V33.0027ZM979.457 10.4621V34.0027H981.457V10.4621H979.457ZM1017.26 9.46205H993.6V11.4621H1017.26V9.46205ZM1018.26 34.0027V10.4621H1016.26V34.0027H1018.26ZM993.6 35.0027H1017.26V33.0027H993.6V35.0027ZM992.6 10.4621V34.0027H994.6V10.4621H992.6ZM846.4 11.4621H870.057V9.46205H846.4V11.4621ZM847.4 34.0027V10.4621H845.4V34.0027H847.4ZM870.057 33.0027H846.4V35.0027H870.057V33.0027ZM869.057 10.4621V34.0027H871.057V10.4621H869.057ZM906.857 9.46205H883.2V11.4621H906.857V9.46205ZM907.857 34.0027V10.4621H905.857V34.0027H907.857ZM883.2 35.0027H906.857V33.0027H883.2V35.0027ZM882.2 10.4621V34.0027H884.2V10.4621H882.2ZM920 11.4621H943.657V9.46205H920V11.4621ZM921 34.0027V10.4621H919V34.0027H921ZM943.657 33.0027H920V35.0027H943.657V33.0027ZM942.657 10.4621V34.0027H944.657V10.4621H942.657ZM772.8 304.412H796.457V302.412H772.8V304.412ZM773.8 326.953V303.412H771.8V326.953H773.8ZM796.457 325.953H772.8V327.953H796.457V325.953ZM795.457 303.412V326.953H797.457V303.412H795.457ZM833.257 302.412H809.6V304.412H833.257V302.412ZM834.257 326.953V303.412H832.257V326.953H834.257ZM809.6 327.953H833.257V325.953H809.6V327.953ZM808.6 303.412V326.953H810.6V303.412H808.6ZM1030.4 304.412H1054.06V302.412H1030.4V304.412ZM1031.4 326.953V303.412H1029.4V326.953H1031.4ZM1054.06 325.953H1030.4V327.953H1054.06V325.953ZM1053.06 303.412V326.953H1055.06V303.412H1053.06ZM1090.86 302.412H1067.2V304.412H1090.86V302.412ZM1091.86 326.953V303.412H1089.86V326.953H1091.86ZM1067.2 327.953H1090.86V325.953H1067.2V327.953ZM1066.2 303.412V326.953H1068.2V303.412H1066.2ZM956.8 304.412H980.457V302.412H956.8V304.412ZM957.8 326.953V303.412H955.8V326.953H957.8ZM980.457 325.953H956.8V327.953H980.457V325.953ZM979.457 303.412V326.953H981.457V303.412H979.457ZM1017.26 302.412H993.6V304.412H1017.26V302.412ZM1018.26 326.953V303.412H1016.26V326.953H1018.26ZM993.6 327.953H1017.26V325.953H993.6V327.953ZM992.6 303.412V326.953H994.6V303.412H992.6ZM846.4 304.412H870.057V302.412H846.4V304.412ZM847.4 326.953V303.412H845.4V326.953H847.4ZM870.057 325.953H846.4V327.953H870.057V325.953ZM869.057 303.412V326.953H871.057V303.412H869.057ZM906.857 302.412H883.2V304.412H906.857V302.412ZM907.857 326.953V303.412H905.857V326.953H907.857ZM883.2 327.953H906.857V325.953H883.2V327.953ZM882.2 303.412V326.953H884.2V303.412H882.2ZM920 304.412H943.657V302.412H920V304.412ZM921 326.953V303.412H919V326.953H921ZM943.657 325.953H920V327.953H943.657V325.953ZM942.657 303.412V326.953H944.657V303.412H942.657ZM1104 1H1472V-1H1104V1ZM1105 10.4621V0H1103V10.4621H1105ZM1127.66 9.46205H1104V11.4621H1127.66V9.46205ZM1128.66 34.0027V10.4621H1126.66V34.0027H1128.66ZM1104 35.0027H1127.66V33.0027H1104V35.0027ZM1105 303.412V34.0027H1103V303.412H1105ZM1127.66 302.412H1104V304.412H1127.66V302.412ZM1128.66 326.953V303.412H1126.66V326.953H1128.66ZM1104 327.953H1127.66V325.953H1104V327.953ZM1105 340.032V326.953H1103V340.032H1105ZM1472 339.032H1104V341.032H1472V339.032ZM1471 0V340.032H1473V0H1471ZM1164.46 9.46205H1140.8V11.4621H1164.46V9.46205ZM1165.46 34.0027V10.4621H1163.46V34.0027H1165.46ZM1140.8 35.0027H1164.46V33.0027H1140.8V35.0027ZM1139.8 10.4621V34.0027H1141.8V10.4621H1139.8ZM1177.6 11.4621H1201.26V9.46205H1177.6V11.4621ZM1178.6 34.0027V10.4621H1176.6V34.0027H1178.6ZM1201.26 33.0027H1177.6V35.0027H1201.26V33.0027ZM1200.26 10.4621V34.0027H1202.26V10.4621H1200.26ZM1422.06 9.46205H1398.4V11.4621H1422.06V9.46205ZM1423.06 34.0027V10.4621H1421.06V34.0027H1423.06ZM1398.4 35.0027H1422.06V33.0027H1398.4V35.0027ZM1397.4 10.4621V34.0027H1399.4V10.4621H1397.4ZM1435.2 11.4621H1458.86V9.46205H1435.2V11.4621ZM1436.2 34.0027V10.4621H1434.2V34.0027H1436.2ZM1458.86 33.0027H1435.2V35.0027H1458.86V33.0027ZM1457.86 10.4621V34.0027H1459.86V10.4621H1457.86ZM1348.46 9.46205H1324.8V11.4621H1348.46V9.46205ZM1349.46 34.0027V10.4621H1347.46V34.0027H1349.46ZM1324.8 35.0027H1348.46V33.0027H1324.8V35.0027ZM1323.8 10.4621V34.0027H1325.8V10.4621H1323.8ZM1361.6 11.4621H1385.26V9.46205H1361.6V11.4621ZM1362.6 34.0027V10.4621H1360.6V34.0027H1362.6ZM1385.26 33.0027H1361.6V35.0027H1385.26V33.0027ZM1384.26 10.4621V34.0027H1386.26V10.4621H1384.26ZM1238.06 9.46205H1214.4V11.4621H1238.06V9.46205ZM1239.06 34.0027V10.4621H1237.06V34.0027H1239.06ZM1214.4 35.0027H1238.06V33.0027H1214.4V35.0027ZM1213.4 10.4621V34.0027H1215.4V10.4621H1213.4ZM1251.2 11.4621H1274.86V9.46205H1251.2V11.4621ZM1252.2 34.0027V10.4621H1250.2V34.0027H1252.2ZM1274.86 33.0027H1251.2V35.0027H1274.86V33.0027ZM1273.86 10.4621V34.0027H1275.86V10.4621H1273.86ZM1311.66 9.46205H1288V11.4621H1311.66V9.46205ZM1312.66 34.0027V10.4621H1310.66V34.0027H1312.66ZM1288 35.0027H1311.66V33.0027H1288V35.0027ZM1287 10.4621V34.0027H1289V10.4621H1287ZM1164.46 302.412H1140.8V304.412H1164.46V302.412ZM1165.46 326.953V303.412H1163.46V326.953H1165.46ZM1140.8 327.953H1164.46V325.953H1140.8V327.953ZM1139.8 303.412V326.953H1141.8V303.412H1139.8ZM1177.6 304.412H1201.26V302.412H1177.6V304.412ZM1178.6 326.953V303.412H1176.6V326.953H1178.6ZM1201.26 325.953H1177.6V327.953H1201.26V325.953ZM1200.26 303.412V326.953H1202.26V303.412H1200.26ZM1422.06 302.412H1398.4V304.412H1422.06V302.412ZM1423.06 326.953V303.412H1421.06V326.953H1423.06ZM1398.4 327.953H1422.06V325.953H1398.4V327.953ZM1397.4 303.412V326.953H1399.4V303.412H1397.4ZM1435.2 304.412H1458.86V302.412H1435.2V304.412ZM1436.2 326.953V303.412H1434.2V326.953H1436.2ZM1458.86 325.953H1435.2V327.953H1458.86V325.953ZM1457.86 303.412V326.953H1459.86V303.412H1457.86ZM1348.46 302.412H1324.8V304.412H1348.46V302.412ZM1349.46 326.953V303.412H1347.46V326.953H1349.46ZM1324.8 327.953H1348.46V325.953H1324.8V327.953ZM1323.8 303.412V326.953H1325.8V303.412H1323.8ZM1361.6 304.412H1385.26V302.412H1361.6V304.412ZM1362.6 326.953V303.412H1360.6V326.953H1362.6ZM1385.26 325.953H1361.6V327.953H1385.26V325.953ZM1384.26 303.412V326.953H1386.26V303.412H1384.26ZM1238.06 302.412H1214.4V304.412H1238.06V302.412ZM1239.06 326.953V303.412H1237.06V326.953H1239.06ZM1214.4 327.953H1238.06V325.953H1214.4V327.953ZM1213.4 303.412V326.953H1215.4V303.412H1213.4ZM1251.2 304.412H1274.86V302.412H1251.2V304.412ZM1252.2 326.953V303.412H1250.2V326.953H1252.2ZM1274.86 325.953H1251.2V327.953H1274.86V325.953ZM1273.86 303.412V326.953H1275.86V303.412H1273.86ZM1311.66 302.412H1288V304.412H1311.66V302.412ZM1312.66 326.953V303.412H1310.66V326.953H1312.66ZM1288 327.953H1311.66V325.953H1288V327.953ZM1287 303.412V326.953H1289V303.412H1287Z" fill="black" mask="url(#path-3-inside-1_1209_2)"/>
<path fill-rule="evenodd" clip-rule="evenodd" d="M1104 177.085L857.173 303.412H870.057V326.953H846.4V308.926L833.257 315.652V326.953H811.177L785.623 340.032H1104V177.085ZM1104 177.085V303.412H1127.66V326.953H1104V340.032H1449.94L1450 340V326.953H1435.2V303.412H1450V34.0027H1435.2V10.4621H1450V0L1422.06 14.3013V34.0027H1398.4V26.4092L1385.26 33.1357V34.0027H1383.56L1104 177.085ZM1030.4 303.412H1054.06V326.953H1030.4V303.412ZM1090.86 303.412H1067.2V326.953H1090.86V303.412ZM956.8 303.412H980.457V326.953H956.8V303.412ZM1017.26 303.412H993.6V326.953H1017.26V303.412ZM906.857 303.412H883.2V326.953H906.857V303.412ZM920 303.412H943.657V326.953H920V303.412ZM1164.46 303.412H1140.8V326.953H1164.46V303.412ZM1177.6 303.412H1201.26V326.953H1177.6V303.412ZM1422.06 303.412H1398.4V326.953H1422.06V303.412ZM1348.46 303.412H1324.8V326.953H1348.46V303.412ZM1361.6 303.412H1385.26V326.953H1361.6V303.412ZM1238.06 303.412H1214.4V326.953H1238.06V303.412ZM1251.2 303.412H1274.86V326.953H1251.2V303.412ZM1311.66 303.412H1288V326.953H1311.66V303.412Z" fill="#DFCA20"/>
<path fill-rule="evenodd" clip-rule="evenodd" d="M368 737H0V747.462H23.6571V771.003H0V1040.41H23.6571V1063.95H0V1077.03H368V737ZM36.8 747.462H60.4571V771.003H36.8V747.462ZM97.2571 747.462H73.6V771.003H97.2571V747.462ZM294.4 747.462H318.057V771.003H294.4V747.462ZM354.857 747.462H331.2V771.003H354.857V747.462ZM220.8 747.462H244.457V771.003H220.8V747.462ZM281.257 747.462H257.6V771.003H281.257V747.462ZM110.4 747.462H134.057V771.003H110.4V747.462ZM170.857 747.462H147.2V771.003H170.857V747.462ZM184 747.462H207.657V771.003H184V747.462ZM36.8 1040.41H60.4571V1063.95H36.8V1040.41ZM97.2571 1040.41H73.6V1063.95H97.2571V1040.41ZM294.4 1040.41H318.057V1063.95H294.4V1040.41ZM354.857 1040.41H331.2V1063.95H354.857V1040.41ZM220.8 1040.41H244.457V1063.95H220.8V1040.41ZM281.257 1040.41H257.6V1063.95H281.257V1040.41ZM110.4 1040.41H134.057V1063.95H110.4V1040.41ZM170.857 1040.41H147.2V1063.95H170.857V1040.41ZM184 1040.41H207.657V1063.95H184V1040.41ZM736 737H368V747.462H391.657V771.003H368V1040.41H391.657V1063.95H368V1077.03H736H1104V737H736ZM736 1063.95V1040.41H759.657V1063.95H736ZM736 771.003V747.462H759.657V771.003H736ZM404.8 747.462H428.457V771.003H404.8V747.462ZM465.257 747.462H441.6V771.003H465.257V747.462ZM662.4 747.462H686.057V771.003H662.4V747.462ZM722.857 747.462H699.2V771.003H722.857V747.462ZM588.8 747.462H612.457V771.003H588.8V747.462ZM649.257 747.462H625.6V771.003H649.257V747.462ZM478.4 747.462H502.057V771.003H478.4V747.462ZM538.857 747.462H515.2V771.003H538.857V747.462ZM552 747.462H575.657V771.003H552V747.462ZM404.8 1040.41H428.457V1063.95H404.8V1040.41ZM465.257 1040.41H441.6V1063.95H465.257V1040.41ZM662.4 1040.41H686.057V1063.95H662.4V1040.41ZM722.857 1040.41H699.2V1063.95H722.857V1040.41ZM588.8 1040.41H612.457V1063.95H588.8V1040.41ZM649.257 1040.41H625.6V1063.95H649.257V1040.41ZM478.4 1040.41H502.057V1063.95H478.4V1040.41ZM538.857 1040.41H515.2V1063.95H538.857V1040.41ZM552 1040.41H575.657V1063.95H552V1040.41ZM796.457 747.462H772.8V771.003H796.457V747.462ZM809.6 747.462H833.257V771.003H809.6V747.462ZM1054.06 747.462H1030.4V771.003H1054.06V747.462ZM1067.2 747.462H1090.86V771.003H1067.2V747.462ZM980.457 747.462H956.8V771.003H980.457V747.462ZM993.6 747.462H1017.26V771.003H993.6V747.462ZM870.057 747.462H846.4V771.003H870.057V747.462ZM883.2 747.462H906.857V771.003H883.2V747.462ZM943.657 747.462H920V771.003H943.657V747.462ZM796.457 1040.41H772.8V1063.95H796.457V1040.41ZM809.6 1040.41H833.257V1063.95H809.6V1040.41ZM1054.06 1040.41H1030.4V1063.95H1054.06V1040.41ZM1067.2 1040.41H1090.86V1063.95H1067.2V1040.41ZM980.457 1040.41H956.8V1063.95H980.457V1040.41ZM993.6 1040.41H1017.26V1063.95H993.6V1040.41ZM870.057 1040.41H846.4V1063.95H870.057V1040.41ZM883.2 1040.41H906.857V1063.95H883.2V1040.41ZM943.657 1040.41H920V1063.95H943.657V1040.41ZM1472 737H1104V747.462H1127.66V771.003H1104V1040.41H1127.66V1063.95H1104V1077.03H1472V737ZM1140.8 747.462H1164.46V771.003H1140.8V747.462ZM1201.26 747.462H1177.6V771.003H1201.26V747.462ZM1398.4 747.462H1422.06V771.003H1398.4V747.462ZM1458.86 747.462H1435.2V771.003H1458.86V747.462ZM1324.8 747.462H1348.46V771.003H1324.8V747.462ZM1385.26 747.462H1361.6V771.003H1385.26V747.462ZM1214.4 747.462H1238.06V771.003H1214.4V747.462ZM1274.86 747.462H1251.2V771.003H1274.86V747.462ZM1288 747.462H1311.66V771.003H1288V747.462ZM1140.8 1040.41H1164.46V1063.95H1140.8V1040.41ZM1201.26 1040.41H1177.6V1063.95H1201.26V1040.41ZM1398.4 1040.41H1422.06V1063.95H1398.4V1040.41ZM1458.86 1040.41H1435.2V1063.95H1458.86V1040.41ZM1324.8 1040.41H1348.46V1063.95H1324.8V1040.41ZM1385.26 1040.41H1361.6V1063.95H1385.26V1040.41ZM1214.4 1040.41H1238.06V1063.95H1214.4V1040.41ZM1274.86 1040.41H1251.2V1063.95H1274.86V1040.41ZM1288 1040.41H1311.66V1063.95H1288V1040.41Z" fill="black"/>
<path fill-rule="evenodd" clip-rule="evenodd" d="M10 747.462V737H368V893.774L81.4875 1040.41H73.6V1044.45L60.4571 1051.18V1040.41H36.8V1063.28L10 1077V1063.95H23.6571V1040.41H10V771.003H23.6571V747.462H10ZM607.878 771.003L368 893.774L368 771.003H391.657V747.462H368V737H674.315L649.257 749.825V747.462H625.6V761.933L612.457 768.659V747.462H588.8V771.003H607.878ZM60.4571 747.462H36.8V771.003H60.4571V747.462ZM73.6 747.462H97.2571V771.003H73.6V747.462ZM318.057 747.462H294.4V771.003H318.057V747.462ZM331.2 747.462H354.857V771.003H331.2V747.462ZM244.457 747.462H220.8V771.003H244.457V747.462ZM257.6 747.462H281.257V771.003H257.6V747.462ZM134.057 747.462H110.4V771.003H134.057V747.462ZM147.2 747.462H170.857V771.003H147.2V747.462ZM207.657 747.462H184V771.003H207.657V747.462ZM428.457 747.462H404.8V771.003H428.457V747.462ZM441.6 747.462H465.257V771.003H441.6V747.462ZM502.057 747.462H478.4V771.003H502.057V747.462ZM515.2 747.462H538.857V771.003H515.2V747.462ZM575.657 747.462H552V771.003H575.657V747.462Z" fill="#EC961D"/>
<path fill-rule="evenodd" clip-rule="evenodd" d="M1104 914.085L857.173 1040.41H870.057V1063.95H846.4V1045.93L833.257 1052.65V1063.95H811.177L785.623 1077.03H1104V914.085ZM1104 914.085V1040.41H1127.66V1063.95H1104V1077.03H1449.94L1450 1077V1063.95H1435.2V1040.41H1450V771.003H1435.2V747.462H1450V737L1422.06 751.301V771.003H1398.4V763.409L1385.26 770.136V771.003H1383.56L1104 914.085ZM1030.4 1040.41H1054.06V1063.95H1030.4V1040.41ZM1090.86 1040.41H1067.2V1063.95H1090.86V1040.41ZM956.8 1040.41H980.457V1063.95H956.8V1040.41ZM1017.26 1040.41H993.6V1063.95H1017.26V1040.41ZM906.857 1040.41H883.2V1063.95H906.857V1040.41ZM920 1040.41H943.657V1063.95H920V1040.41ZM1164.46 1040.41H1140.8V1063.95H1164.46V1040.41ZM1177.6 1040.41H1201.26V1063.95H1177.6V1040.41ZM1422.06 1040.41H1398.4V1063.95H1422.06V1040.41ZM1348.46 1040.41H1324.8V1063.95H1348.46V1040.41ZM1361.6 1040.41H1385.26V1063.95H1361.6V1040.41ZM1238.06 1040.41H1214.4V1063.95H1238.06V1040.41ZM1251.2 1040.41H1274.86V1063.95H1251.2V1040.41ZM1311.66 1040.41H1288V1063.95H1311.66V1040.41Z" fill="#EC9090"/>
<path fill-rule="evenodd" clip-rule="evenodd" d="M368 1474H0V1484.46H23.6571V1508H0V1777.41H23.6571V1800.95H0V1814.03H368V1474ZM36.8 1484.46H60.4571V1508H36.8V1484.46ZM97.2571 1484.46H73.6V1508H97.2571V1484.46ZM294.4 1484.46H318.057V1508H294.4V1484.46ZM354.857 1484.46H331.2V1508H354.857V1484.46ZM220.8 1484.46H244.457V1508H220.8V1484.46ZM281.257 1484.46H257.6V1508H281.257V1484.46ZM110.4 1484.46H134.057V1508H110.4V1484.46ZM170.857 1484.46H147.2V1508H170.857V1484.46ZM184 1484.46H207.657V1508H184V1484.46ZM36.8 1777.41H60.4571V1800.95H36.8V1777.41ZM97.2571 1777.41H73.6V1800.95H97.2571V1777.41ZM294.4 1777.41H318.057V1800.95H294.4V1777.41ZM354.857 1777.41H331.2V1800.95H354.857V1777.41ZM220.8 1777.41H244.457V1800.95H220.8V1777.41ZM281.257 1777.41H257.6V1800.95H281.257V1777.41ZM110.4 1777.41H134.057V1800.95H110.4V1777.41ZM170.857 1777.41H147.2V1800.95H170.857V1777.41ZM184 1777.41H207.657V1800.95H184V1777.41ZM736 1474H368V1484.46H391.657V1508H368V1777.41H391.657V1800.95H368V1814.03H736H1104V1474H736ZM736 1800.95V1777.41H759.657V1800.95H736ZM736 1508V1484.46H759.657V1508H736ZM404.8 1484.46H428.457V1508H404.8V1484.46ZM465.257 1484.46H441.6V1508H465.257V1484.46ZM662.4 1484.46H686.057V1508H662.4V1484.46ZM722.857 1484.46H699.2V1508H722.857V1484.46ZM588.8 1484.46H612.457V1508H588.8V1484.46ZM649.257 1484.46H625.6V1508H649.257V1484.46ZM478.4 1484.46H502.057V1508H478.4V1484.46ZM538.857 1484.46H515.2V1508H538.857V1484.46ZM552 1484.46H575.657V1508H552V1484.46ZM404.8 1777.41H428.457V1800.95H404.8V1777.41ZM465.257 1777.41H441.6V1800.95H465.257V1777.41ZM662.4 1777.41H686.057V1800.95H662.4V1777.41ZM722.857 1777.41H699.2V1800.95H722.857V1777.41ZM588.8 1777.41H612.457V1800.95H588.8V1777.41ZM649.257 1777.41H625.6V1800.95H649.257V1777.41ZM478.4 1777.41H502.057V1800.95H478.4V1777.41ZM538.857 1777.41H515.2V1800.95H538.857V1777.41ZM552 1777.41H575.657V1800.95H552V1777.41ZM796.457 1484.46H772.8V1508H796.457V1484.46ZM809.6 1484.46H833.257V1508H809.6V1484.46ZM1054.06 1484.46H1030.4V1508H1054.06V1484.46ZM1067.2 1484.46H1090.86V1508H1067.2V1484.46ZM980.457 1484.46H956.8V1508H980.457V1484.46ZM993.6 1484.46H1017.26V1508H993.6V1484.46ZM870.057 1484.46H846.4V1508H870.057V1484.46ZM883.2 1484.46H906.857V1508H883.2V1484.46ZM943.657 1484.46H920V1508H943.657V1484.46ZM796.457 1777.41H772.8V1800.95H796.457V1777.41ZM809.6 1777.41H833.257V1800.95H809.6V1777.41ZM1054.06 1777.41H1030.4V1800.95H1054.06V1777.41ZM1067.2 1777.41H1090.86V1800.95H1067.2V1777.41ZM980.457 1777.41H956.8V1800.95H980.457V1777.41ZM993.6 1777.41H1017.26V1800.95H993.6V1777.41ZM870.057 1777.41H846.4V1800.95H870.057V1777.41ZM883.2 1777.41H906.857V1800.95H883.2V1777.41ZM943.657 1777.41H920V1800.95H943.657V1777.41ZM1472 1474H1104V1484.46H1127.66V1508H1104V1777.41H1127.66V1800.95H1104V1814.03H1472V1474ZM1140.8 1484.46H1164.46V1508H1140.8V1484.46ZM1201.26 1484.46H1177.6V1508H1201.26V1484.46ZM1398.4 1484.46H1422.06V1508H1398.4V1484.46ZM1458.86 1484.46H1435.2V1508H1458.86V1484.46ZM1324.8 1484.46H1348.46V1508H1324.8V1484.46ZM1385.26 1484.46H1361.6V1508H1385.26V1484.46ZM1214.4 1484.46H1238.06V1508H1214.4V1484.46ZM1274.86 1484.46H1251.2V1508H1274.86V1484.46ZM1288 1484.46H1311.66V1508H1288V1484.46ZM1140.8 1777.41H1164.46V1800.95H1140.8V1777.41ZM1201.26 1777.41H1177.6V1800.95H1201.26V1777.41ZM1398.4 1777.41H1422.06V1800.95H1398.4V1777.41ZM1458.86 1777.41H1435.2V1800.95H1458.86V1777.41ZM1324.8 1777.41H1348.46V1800.95H1324.8V1777.41ZM1385.26 1777.41H1361.6V1800.95H1385.26V1777.41ZM1214.4 1777.41H1238.06V1800.95H1214.4V1777.41ZM1274.86 1777.41H1251.2V1800.95H1274.86V1777.41ZM1288 1777.41H1311.66V1800.95H1288V1777.41Z" fill="black"/>
<path fill-rule="evenodd" clip-rule="evenodd" d="M10 1484.46V1474H368V1630.77L81.4875 1777.41H73.6V1781.45L60.4571 1788.18V1777.41H36.8V1800.28L10 1814V1800.95H23.6571V1777.41H10V1508H23.6571V1484.46H10ZM607.878 1508L368 1630.77L368 1508H391.657V1484.46H368V1474H674.315L649.257 1486.82V1484.46H625.6V1498.93L612.457 1505.66V1484.46H588.8V1508H607.878ZM60.4571 1484.46H36.8V1508H60.4571V1484.46ZM73.6 1484.46H97.2571V1508H73.6V1484.46ZM318.057 1484.46H294.4V1508H318.057V1484.46ZM331.2 1484.46H354.857V1508H331.2V1484.46ZM244.457 1484.46H220.8V1508H244.457V1484.46ZM257.6 1484.46H281.257V1508H257.6V1484.46ZM134.057 1484.46H110.4V1508H134.057V1484.46ZM147.2 1484.46H170.857V1508H147.2V1484.46ZM207.657 1484.46H184V1508H207.657V1484.46ZM428.457 1484.46H404.8V1508H428.457V1484.46ZM441.6 1484.46H465.257V1508H441.6V1484.46ZM502.057 1484.46H478.4V1508H502.057V1484.46ZM515.2 1484.46H538.857V1508H515.2V1484.46ZM575.657 1484.46H552V1508H575.657V1484.46Z" fill="#CE6835"/>
</svg>
