<svg width="736" height="341" viewBox="0 0 736 341" fill="none" xmlns="http://www.w3.org/2000/svg">
<path fill-rule="evenodd" clip-rule="evenodd" d="M368 0H0V10.4621H23.6571V34.0027H0V303.412H23.6571V326.953H0V340.032H368V0ZM36.8 10.4621H60.4571V34.0027H36.8V10.4621ZM97.2571 10.4621H73.6V34.0027H97.2571V10.4621ZM294.4 10.4621H318.057V34.0027H294.4V10.4621ZM354.857 10.4621H331.2V34.0027H354.857V10.4621ZM220.8 10.4621H244.457V34.0027H220.8V10.4621ZM281.257 10.4621H257.6V34.0027H281.257V10.4621ZM110.4 10.4621H134.057V34.0027H110.4V10.4621ZM170.857 10.4621H147.2V34.0027H170.857V10.4621ZM184 10.4621H207.657V34.0027H184V10.4621ZM36.8 303.412H60.4571V326.953H36.8V303.412ZM97.2571 303.412H73.6V326.953H97.2571V303.412ZM294.4 303.412H318.057V326.953H294.4V303.412ZM354.857 303.412H331.2V326.953H354.857V303.412ZM220.8 303.412H244.457V326.953H220.8V303.412ZM281.257 303.412H257.6V326.953H281.257V303.412ZM110.4 303.412H134.057V326.953H110.4V303.412ZM170.857 303.412H147.2V326.953H170.857V303.412ZM184 303.412H207.657V326.953H184V303.412ZM736 0H368V10.4621H391.657V34.0027H368V303.412H391.657V326.953H368V340.032H736V0ZM404.8 10.4621H428.457V34.0027H404.8V10.4621ZM465.257 10.4621H441.6V34.0027H465.257V10.4621ZM662.4 10.4621H686.057V34.0027H662.4V10.4621ZM722.857 10.4621H699.2V34.0027H722.857V10.4621ZM588.8 10.4621H612.457V34.0027H588.8V10.4621ZM649.257 10.4621H625.6V34.0027H649.257V10.4621ZM478.4 10.4621H502.057V34.0027H478.4V10.4621ZM538.857 10.4621H515.2V34.0027H538.857V10.4621ZM552 10.4621H575.657V34.0027H552V10.4621ZM404.8 303.412H428.457V326.953H404.8V303.412ZM465.257 303.412H441.6V326.953H465.257V303.412ZM662.4 303.412H686.057V326.953H662.4V303.412ZM722.857 303.412H699.2V326.953H722.857V303.412ZM588.8 303.412H612.457V326.953H588.8V303.412ZM649.257 303.412H625.6V326.953H649.257V303.412ZM478.4 303.412H502.057V326.953H478.4V303.412ZM538.857 303.412H515.2V326.953H538.857V303.412ZM552 303.412H575.657V326.953H552V303.412Z" fill="black"/>
</svg>
