<svg width="368" height="341" viewBox="0 0 368 341" fill="none" xmlns="http://www.w3.org/2000/svg">
<path fill-rule="evenodd" clip-rule="evenodd" d="M0 0H368V340.032H0V326.953H23.6571V303.412H0V34.0027H23.6571V10.4621H0V0ZM60.4571 10.4621H36.8V34.0027H60.4571V10.4621ZM73.6 10.4621H97.2571V34.0027H73.6V10.4621ZM318.057 10.4621H294.4V34.0027H318.057V10.4621ZM331.2 10.4621H354.857V34.0027H331.2V10.4621ZM244.457 10.4621H220.8V34.0027H244.457V10.4621ZM257.6 10.4621H281.257V34.0027H257.6V10.4621ZM134.057 10.4621H110.4V34.0027H134.057V10.4621ZM147.2 10.4621H170.857V34.0027H147.2V10.4621ZM207.657 10.4621H184V34.0027H207.657V10.4621ZM60.4571 303.412H36.8V326.953H60.4571V303.412ZM73.6 303.412H97.2571V326.953H73.6V303.412ZM318.057 303.412H294.4V326.953H318.057V303.412ZM331.2 303.412H354.857V326.953H331.2V303.412ZM244.457 303.412H220.8V326.953H244.457V303.412ZM257.6 303.412H281.257V326.953H257.6V303.412ZM134.057 303.412H110.4V326.953H134.057V303.412ZM147.2 303.412H170.857V326.953H147.2V303.412ZM207.657 303.412H184V326.953H207.657V303.412Z" fill="black"/>
</svg>
