<svg width="237" height="237" viewBox="0 0 237 237" fill="none" xmlns="http://www.w3.org/2000/svg">
<path d="M118.5 0L124.408 73.6243L149.17 4.03779L135.821 76.6825L177.75 15.876L146.054 82.5905L202.292 34.7078L154.41 90.9456L221.124 59.25L160.318 101.179L232.962 87.8299L163.376 112.592L237 118.5L163.376 124.408L232.962 149.17L160.318 135.821L221.124 177.75L154.41 146.054L202.292 202.292L146.054 154.41L177.75 221.124L135.821 160.318L149.17 232.962L124.408 163.376L118.5 237L112.592 163.376L87.8299 232.962L101.179 160.318L59.25 221.124L90.9456 154.41L34.7078 202.292L82.5905 146.054L15.876 177.75L76.6825 135.821L4.03779 149.17L73.6243 124.408L0 118.5L73.6243 112.592L4.03779 87.8299L76.6825 101.179L15.876 59.25L82.5905 90.9456L34.7078 34.7078L90.9456 82.5905L59.25 15.876L101.179 76.6825L87.8299 4.03779L112.592 73.6243L118.5 0Z" fill="#FFFCE5"/>
</svg>
